<svg width="1080" height="220" viewBox="0 0 1080 220" fill="none" xmlns="http://www.w3.org/2000/svg">
<path d="M10.112 145C10.1973 138.856 10.2827 133.821 10.368 129.896C10.4533 125.971 10.496 122.728 10.496 120.168C10.5813 117.523 10.624 115.261 10.624 113.384C10.624 111.421 10.624 109.459 10.624 107.496C10.624 105.448 10.624 103.016 10.624 100.2C10.624 97.384 10.624 94.9947 10.624 93.032C10.624 90.984 10.624 88.9787 10.624 87.016C10.624 85.0533 10.5813 82.792 10.496 80.232C10.496 77.672 10.4533 74.4293 10.368 70.504C10.2827 66.5787 10.1973 61.544 10.112 55.4H44.928C53.0347 55.4 59.136 57.4053 63.232 61.416C67.4133 65.4267 69.504 71.0587 69.504 78.312C69.504 80.4453 69.2053 82.7493 68.608 85.224C68.096 87.6133 66.944 89.9173 65.152 92.136C63.4453 94.3547 60.8853 96.2747 57.472 97.896C61.7387 99.0053 65.152 100.669 67.712 102.888C70.272 105.107 72.1067 107.752 73.216 110.824C74.3253 113.811 74.88 117.096 74.88 120.68C74.88 125.8 73.856 130.195 71.808 133.864C69.76 137.448 66.7307 140.221 62.72 142.184C58.7947 144.061 54.016 145 48.384 145H10.112ZM35.328 129.128C39.68 129.128 43.2213 129.128 45.952 129.128C48.768 129.043 51.0293 128.915 52.736 128.744C54.4427 128.488 55.808 128.232 56.832 127.976C57.856 127.72 58.752 127.421 59.52 127.08C61.7387 126.141 63.488 124.648 64.768 122.6C66.1333 120.552 66.816 118.12 66.816 115.304C66.816 112.829 66.3467 110.781 65.408 109.16C64.4693 107.539 63.3173 106.216 61.952 105.192C60.5867 104.168 59.264 103.443 57.984 103.016C57.1307 102.675 56.1493 102.419 55.04 102.248C54.016 101.992 52.6933 101.779 51.072 101.608C49.536 101.437 47.488 101.352 44.928 101.352C42.368 101.267 39.168 101.224 35.328 101.224C31.5733 101.224 28.5867 101.267 26.368 101.352C24.1493 101.437 22.4 101.523 21.12 101.608C19.9253 101.693 19.0293 101.864 18.432 102.12C17.92 102.291 17.4507 102.504 17.024 102.76C16.768 103.016 16.4693 103.443 16.128 104.04C15.872 104.637 15.6587 105.789 15.488 107.496C15.4027 109.203 15.36 111.805 15.36 115.304C15.36 118.803 15.4027 121.363 15.488 122.984C15.6587 124.605 15.872 125.715 16.128 126.312C16.4693 126.824 16.768 127.208 17.024 127.464C17.4507 127.805 17.92 128.061 18.432 128.232C19.0293 128.403 19.9253 128.573 21.12 128.744C22.4 128.915 24.1493 129.043 26.368 129.128C28.5867 129.128 31.5733 129.128 35.328 129.128ZM34.688 95.592C39.3813 95.592 43.008 95.592 45.568 95.592C48.2133 95.5067 50.2187 95.336 51.584 95.08C53.0347 94.824 54.2293 94.4827 55.168 94.056C56.96 93.544 58.5813 92.4347 60.032 90.728C61.4827 88.936 62.208 86.504 62.208 83.432C62.208 80.36 61.4827 77.9707 60.032 76.264C58.5813 74.5573 56.96 73.4053 55.168 72.808C54.2293 72.3813 53.0347 72.0827 51.584 71.912C50.2187 71.656 48.2133 71.528 45.568 71.528C43.008 71.4427 39.3813 71.4 34.688 71.4C30.2507 71.4 26.8373 71.4427 24.448 71.528C22.144 71.528 20.48 71.656 19.456 71.912C18.432 72.0827 17.664 72.3813 17.152 72.808C16.896 73.064 16.64 73.4907 16.384 74.088C16.2133 74.6 16.0853 75.5813 16 77.032C15.9147 78.3973 15.872 80.5307 15.872 83.432C15.872 86.3333 15.9147 88.5093 16 89.96C16.0853 91.4107 16.2133 92.392 16.384 92.904C16.64 93.416 16.896 93.8 17.152 94.056C17.664 94.4827 18.432 94.824 19.456 95.08C20.48 95.336 22.144 95.5067 24.448 95.592C26.8373 95.592 30.2507 95.592 34.688 95.592ZM141.943 145H98.423C98.5083 138.856 98.551 133.821 98.551 129.896C98.6363 125.971 98.679 122.728 98.679 120.168C98.7643 117.523 98.807 115.261 98.807 113.384C98.807 111.421 98.807 109.459 98.807 107.496C98.807 105.448 98.807 103.016 98.807 100.2C98.807 97.384 98.807 94.9947 98.807 93.032C98.807 90.984 98.807 88.9787 98.807 87.016C98.807 85.0533 98.7643 82.792 98.679 80.232C98.679 77.672 98.6363 74.4293 98.551 70.504C98.4657 66.4933 98.3803 61.416 98.295 55.272H103.415C103.244 64.8293 103.116 73.704 103.031 81.896C102.946 90.0027 102.86 97.8107 102.775 105.32C102.775 112.829 102.775 120.339 102.775 127.848C102.775 130.237 102.86 131.987 103.031 133.096C103.287 134.205 103.714 135.016 104.311 135.528C104.738 135.869 105.164 136.083 105.591 136.168C106.103 136.253 106.828 136.339 107.767 136.424C108.706 136.424 109.943 136.424 111.479 136.424C113.698 136.424 115.874 136.424 118.007 136.424C120.226 136.424 122.53 136.424 124.919 136.424C127.394 136.424 129.996 136.424 132.727 136.424C135.543 136.424 138.615 136.424 141.943 136.424V145ZM191.534 146.92C184.025 146.92 177.625 145.256 172.334 141.928C167.129 138.515 163.118 133.352 160.302 126.44C157.571 119.528 156.206 110.781 156.206 100.2C156.206 89.5333 157.571 80.7867 160.302 73.96C163.118 67.048 167.129 61.928 172.334 58.6C177.625 55.1867 184.025 53.48 191.534 53.48C199.129 53.48 205.529 55.1867 210.734 58.6C215.939 61.928 219.907 67.048 222.638 73.96C225.454 80.7867 226.862 89.5333 226.862 100.2C226.862 110.781 225.497 119.528 222.766 126.44C220.035 133.352 216.025 138.515 210.734 141.928C205.529 145.256 199.129 146.92 191.534 146.92ZM191.534 137.96C198.19 137.96 203.865 136.595 208.558 133.864C213.251 131.048 216.835 126.867 219.31 121.32C221.87 115.688 223.15 108.648 223.15 100.2C223.15 91.752 221.87 84.7547 219.31 79.208C216.835 73.576 213.251 69.3947 208.558 66.664C203.865 63.848 198.19 62.44 191.534 62.44C184.878 62.44 179.203 63.848 174.51 66.664C169.817 69.3947 166.233 73.576 163.758 79.208C161.283 84.7547 160.046 91.752 160.046 100.2C160.046 108.648 161.283 115.688 163.758 121.32C166.233 126.867 169.817 131.048 174.51 133.864C179.203 136.595 184.878 137.96 191.534 137.96ZM290.274 146.92C281.997 146.92 274.914 145.043 269.026 141.288C263.223 137.448 258.786 132.029 255.714 125.032C252.642 118.035 251.106 109.757 251.106 100.2C251.106 90.3867 252.727 82.024 255.97 75.112C259.213 68.1147 263.821 62.7813 269.794 59.112C275.853 55.3573 283.021 53.48 291.298 53.48C293.602 53.48 295.949 53.608 298.338 53.864C300.813 54.12 303.245 54.5467 305.634 55.144C308.023 55.7413 310.199 56.3813 312.162 57.064V67.176C308.493 65.5547 304.695 64.3173 300.77 63.464C296.93 62.6107 292.962 62.184 288.866 62.184C284.002 62.184 279.522 62.952 275.426 64.488C271.33 66.024 267.831 68.2 264.93 71.016C261.858 74.1733 259.426 78.2267 257.634 83.176C255.842 88.04 254.946 93.7147 254.946 100.2C254.946 106.771 255.885 112.659 257.762 117.864C259.639 122.984 262.455 127.251 266.21 130.664C268.941 133.053 272.226 134.931 276.066 136.296C279.906 137.576 284.258 138.216 289.122 138.216C291.597 138.216 294.114 138.088 296.674 137.832C299.319 137.491 301.709 137.064 303.842 136.552C306.061 136.04 307.767 135.528 308.962 135.016C308.962 132.115 308.962 129.725 308.962 127.848C308.962 125.885 308.919 124.051 308.834 122.344C308.749 120.552 308.663 118.504 308.578 116.2C308.578 113.811 308.493 110.696 308.322 106.856H313.698C313.613 111.123 313.527 114.664 313.442 117.48C313.357 120.211 313.271 122.685 313.186 124.904C313.101 127.123 313.058 129.555 313.058 132.2C313.058 134.845 313.058 138.259 313.058 142.44C311.607 143.293 309.559 144.061 306.914 144.744C304.354 145.341 301.581 145.853 298.594 146.28C295.693 146.707 292.919 146.92 290.274 146.92ZM473.742 143.08C472.206 143.763 470.328 144.403 468.11 145C465.891 145.512 463.502 145.939 460.942 146.28C458.382 146.707 455.779 146.92 453.134 146.92C440.504 146.92 430.819 142.824 424.078 134.632C417.422 126.44 414.094 114.963 414.094 100.2C414.094 85.4373 417.464 73.96 424.206 65.768C430.947 57.576 440.675 53.48 453.39 53.48C456.12 53.48 458.766 53.6507 461.326 53.992C463.886 54.248 466.232 54.6747 468.366 55.272C470.584 55.784 472.376 56.3387 473.742 56.936V66.536C471.096 65.256 467.726 64.232 463.63 63.464C459.534 62.6107 455.352 62.184 451.086 62.184C445.624 62.184 440.888 63.0373 436.878 64.744C432.867 66.4507 429.539 68.84 426.894 71.912C423.907 75.4107 421.646 79.592 420.11 84.456C418.659 89.2347 417.934 94.4827 417.934 100.2C417.934 106.771 418.915 112.829 420.878 118.376C422.926 123.837 425.955 128.275 429.966 131.688C432.611 133.736 435.683 135.357 439.182 136.552C442.68 137.661 446.648 138.216 451.086 138.216C455.352 138.216 459.534 137.789 463.63 136.936C467.726 135.997 471.096 134.888 473.742 133.608V143.08ZM499.107 145C499.278 138.856 499.363 133.821 499.363 129.896C499.449 125.971 499.491 122.728 499.491 120.168C499.577 117.523 499.619 115.261 499.619 113.384C499.705 111.421 499.747 109.459 499.747 107.496C499.747 105.448 499.747 103.016 499.747 100.2C499.747 97.384 499.747 94.9947 499.747 93.032C499.747 90.984 499.705 89.0213 499.619 87.144C499.619 85.1813 499.577 82.92 499.491 80.36C499.491 77.7147 499.449 74.4293 499.363 70.504C499.363 66.5787 499.278 61.544 499.107 55.4H503.971C503.886 59.6667 503.801 63.208 503.715 66.024C503.715 68.84 503.673 71.1867 503.587 73.064C503.587 74.9413 503.587 76.648 503.587 78.184C503.587 79.72 503.587 81.2987 503.587 82.92C503.587 84.456 503.587 86.376 503.587 88.68C503.587 89.7893 503.801 90.6427 504.227 91.24C504.739 91.8373 505.849 92.264 507.555 92.52C509.262 92.776 511.907 92.9467 515.491 93.032C519.161 93.1173 524.195 93.16 530.595 93.16C536.995 93.16 541.987 93.1173 545.571 93.032C549.241 92.9467 551.929 92.776 553.635 92.52C555.342 92.264 556.409 91.8373 556.835 91.24C557.347 90.6427 557.604 89.7893 557.604 88.68C557.604 86.376 557.604 84.456 557.604 82.92C557.604 81.2987 557.604 79.72 557.604 78.184C557.604 76.648 557.561 74.9413 557.475 73.064C557.475 71.1867 557.433 68.84 557.347 66.024C557.347 63.208 557.305 59.6667 557.219 55.4H562.083C561.913 61.544 561.785 66.5787 561.7 70.504C561.7 74.4293 561.657 77.7147 561.571 80.36C561.571 82.92 561.529 85.1813 561.443 87.144C561.443 89.0213 561.443 90.984 561.443 93.032C561.443 94.9947 561.443 97.384 561.443 100.2C561.443 103.016 561.443 105.448 561.443 107.496C561.443 109.459 561.443 111.421 561.443 113.384C561.529 115.261 561.571 117.523 561.571 120.168C561.657 122.728 561.742 125.971 561.827 129.896C561.913 133.821 561.998 138.856 562.083 145H557.091C557.177 139.88 557.219 135.699 557.219 132.456C557.305 129.128 557.347 126.397 557.347 124.264C557.433 122.131 557.475 120.253 557.475 118.632C557.475 117.011 557.475 115.389 557.475 113.768C557.475 112.147 557.475 110.141 557.475 107.752C557.475 106.472 557.219 105.491 556.707 104.808C556.281 104.125 555.214 103.613 553.507 103.272C551.801 102.931 549.155 102.717 545.571 102.632C541.987 102.547 536.995 102.504 530.595 102.504C524.195 102.504 519.161 102.547 515.491 102.632C511.907 102.717 509.262 102.931 507.555 103.272C505.849 103.613 504.739 104.125 504.227 104.808C503.801 105.491 503.587 106.472 503.587 107.752C503.587 110.141 503.587 112.147 503.587 113.768C503.587 115.389 503.587 117.011 503.587 118.632C503.587 120.253 503.587 122.131 503.587 124.264C503.673 126.397 503.715 129.128 503.715 132.456C503.801 135.699 503.886 139.88 503.971 145H499.107ZM585.619 145C586.985 135.357 588.179 125.757 589.203 116.2C590.227 106.557 591.081 96.7013 591.763 86.632C592.531 76.5627 593.214 66.152 593.811 55.4H644.499C645.097 66.152 645.737 76.5627 646.419 86.632C647.187 96.7013 648.083 106.557 649.107 116.2C650.131 125.757 651.326 135.357 652.691 145H645.779C645.779 144.232 645.737 142.909 645.651 141.032C645.566 139.069 645.438 137.021 645.267 134.888C645.011 132.413 644.713 130.152 644.371 128.104C644.03 125.971 643.475 124.605 642.707 124.008C642.366 123.752 641.939 123.539 641.427 123.368C640.915 123.112 639.891 122.899 638.355 122.728C636.819 122.557 634.515 122.429 631.443 122.344C628.457 122.259 624.361 122.216 619.155 122.216C613.865 122.216 609.683 122.259 606.611 122.344C603.625 122.429 601.363 122.557 599.827 122.728C598.377 122.899 597.353 123.112 596.755 123.368C596.243 123.539 595.859 123.752 595.603 124.008C594.835 124.605 594.238 125.971 593.811 128.104C593.47 130.152 593.214 132.413 593.043 134.888C592.873 137.021 592.702 139.069 592.531 141.032C592.446 142.909 592.403 144.232 592.403 145H585.619ZM619.155 107.88C623.422 107.88 626.963 107.88 629.779 107.88C632.595 107.795 634.814 107.667 636.435 107.496C638.142 107.24 639.379 106.899 640.147 106.472C641.001 105.96 641.555 105.277 641.811 104.424C642.067 103.144 642.153 101.267 642.067 98.792C641.982 96.3173 641.769 93.0747 641.427 89.064C641.171 85.5653 640.915 82.8347 640.659 80.872C640.489 78.824 640.318 77.3307 640.147 76.392C640.062 75.4533 639.934 74.8133 639.763 74.472C639.593 74.1307 639.422 73.8747 639.251 73.704C638.654 73.1067 637.673 72.68 636.307 72.424C634.942 72.168 632.894 71.9973 630.163 71.912C627.518 71.8267 623.849 71.784 619.155 71.784C614.462 71.784 610.75 71.8267 608.019 71.912C605.289 71.9973 603.241 72.168 601.875 72.424C600.595 72.68 599.657 73.1067 599.059 73.704C598.803 73.8747 598.59 74.1307 598.419 74.472C598.334 74.8133 598.206 75.4533 598.035 76.392C597.865 77.3307 597.694 78.824 597.523 80.872C597.353 82.8347 597.097 85.5653 596.755 89.064C596.414 93.0747 596.201 96.3173 596.115 98.792C596.115 101.267 596.201 103.144 596.371 104.424C596.713 105.277 597.267 105.96 598.035 106.472C598.803 106.899 599.998 107.24 601.619 107.496C603.326 107.667 605.587 107.795 608.403 107.88C611.219 107.88 614.803 107.88 619.155 107.88ZM730.942 143.08C729.406 143.763 727.528 144.403 725.31 145C723.091 145.512 720.702 145.939 718.142 146.28C715.582 146.707 712.979 146.92 710.334 146.92C697.704 146.92 688.019 142.824 681.278 134.632C674.622 126.44 671.294 114.963 671.294 100.2C671.294 85.4373 674.664 73.96 681.406 65.768C688.147 57.576 697.875 53.48 710.59 53.48C713.32 53.48 715.966 53.6507 718.526 53.992C721.086 54.248 723.432 54.6747 725.566 55.272C727.784 55.784 729.576 56.3387 730.942 56.936V66.536C728.296 65.256 724.926 64.232 720.83 63.464C716.734 62.6107 712.552 62.184 708.286 62.184C702.824 62.184 698.088 63.0373 694.078 64.744C690.067 66.4507 686.739 68.84 684.094 71.912C681.107 75.4107 678.846 79.592 677.31 84.456C675.859 89.2347 675.134 94.4827 675.134 100.2C675.134 106.771 676.115 112.829 678.078 118.376C680.126 123.837 683.155 128.275 687.166 131.688C689.811 133.736 692.883 135.357 696.382 136.552C699.88 137.661 703.848 138.216 708.286 138.216C712.552 138.216 716.734 137.789 720.83 136.936C724.926 135.997 728.296 134.888 730.942 133.608V143.08ZM756.307 145C756.393 138.856 756.478 133.821 756.563 129.896C756.649 125.971 756.691 122.728 756.691 120.168C756.777 117.523 756.819 115.261 756.819 113.384C756.819 111.421 756.819 109.459 756.819 107.496C756.819 105.448 756.819 103.016 756.819 100.2C756.819 97.384 756.819 94.9947 756.819 93.032C756.819 90.984 756.819 89.0213 756.819 87.144C756.819 85.1813 756.777 82.92 756.691 80.36C756.691 77.7147 756.649 74.4293 756.563 70.504C756.478 66.5787 756.393 61.544 756.307 55.4H789.843C794.793 55.4 799.187 56.424 803.027 58.472C806.953 60.4347 810.025 63.336 812.243 67.176C814.547 71.016 815.699 75.752 815.699 81.384C815.699 86.8453 814.59 91.5387 812.371 95.464C810.153 99.304 806.995 102.248 802.899 104.296C798.803 106.259 793.939 107.24 788.307 107.24C790.611 113.811 792.745 119.144 794.707 123.24C796.67 127.251 798.547 130.28 800.339 132.328C802.217 134.376 804.137 135.784 806.099 136.552C808.062 137.235 810.11 137.576 812.243 137.576C813.267 137.576 814.291 137.491 815.315 137.32C816.339 137.064 817.363 136.808 818.387 136.552C819.411 136.211 820.307 135.827 821.075 135.4V144.744C820.222 145.085 819.155 145.384 817.875 145.64C816.681 145.896 815.102 146.024 813.139 146.024C808.275 146.024 804.222 144.659 800.979 141.928C797.737 139.197 794.835 134.973 792.275 129.256C789.715 123.453 787.027 116.115 784.211 107.24C778.409 107.24 773.971 107.325 770.899 107.496C767.827 107.581 765.651 107.752 764.371 108.008C763.091 108.179 762.238 108.435 761.811 108.776C761.299 109.288 760.958 110.099 760.787 111.208C760.702 112.232 760.659 114.237 760.659 117.224C760.659 118.931 760.659 121.363 760.659 124.52C760.745 127.677 760.83 131.091 760.915 134.76C761.086 138.344 761.214 141.757 761.299 145H756.307ZM777.939 102.76C783.571 102.76 787.795 102.675 790.611 102.504C793.427 102.333 795.731 102.035 797.523 101.608C799.401 101.096 801.406 100.2 803.539 98.92C805.673 97.64 807.465 95.7627 808.915 93.288C810.451 90.728 811.219 87.4427 811.219 83.432C811.219 79.336 810.494 76.0507 809.043 73.576C807.678 71.016 805.929 69.096 803.795 67.816C801.747 66.536 799.827 65.64 798.035 65.128C796.841 64.7867 795.475 64.5733 793.939 64.488C792.489 64.3173 790.526 64.1893 788.051 64.104C785.577 64.0187 782.206 63.976 777.939 63.976C773.929 63.976 770.899 64.0187 768.851 64.104C766.803 64.1893 765.31 64.3173 764.371 64.488C763.518 64.5733 762.835 64.7867 762.323 65.128C761.897 65.384 761.513 65.9813 761.171 66.92C760.83 67.7733 760.617 69.4373 760.531 71.912C760.446 74.3013 760.403 78.1413 760.403 83.432C760.403 88.552 760.446 92.392 760.531 94.952C760.617 97.4267 760.83 99.0907 761.171 99.944C761.513 100.712 761.897 101.267 762.323 101.608C762.835 101.864 763.518 102.077 764.371 102.248C765.31 102.419 766.803 102.547 768.851 102.632C770.899 102.717 773.929 102.76 777.939 102.76ZM874.422 146.92C866.912 146.92 860.512 145.256 855.222 141.928C850.016 138.515 846.006 133.352 843.19 126.44C840.459 119.528 839.094 110.781 839.094 100.2C839.094 89.5333 840.459 80.7867 843.19 73.96C846.006 67.048 850.016 61.928 855.222 58.6C860.512 55.1867 866.912 53.48 874.422 53.48C882.016 53.48 888.416 55.1867 893.622 58.6C898.827 61.928 902.795 67.048 905.526 73.96C908.342 80.7867 909.75 89.5333 909.75 100.2C909.75 110.781 908.384 119.528 905.654 126.44C902.923 133.352 898.912 138.515 893.622 141.928C888.416 145.256 882.016 146.92 874.422 146.92ZM874.422 137.96C881.078 137.96 886.752 136.595 891.446 133.864C896.139 131.048 899.723 126.867 902.198 121.32C904.758 115.688 906.038 108.648 906.038 100.2C906.038 91.752 904.758 84.7547 902.198 79.208C899.723 73.576 896.139 69.3947 891.446 66.664C886.752 63.848 881.078 62.44 874.422 62.44C867.766 62.44 862.091 63.848 857.398 66.664C852.704 69.3947 849.12 73.576 846.646 79.208C844.171 84.7547 842.934 91.752 842.934 100.2C842.934 108.648 844.171 115.688 846.646 121.32C849.12 126.867 852.704 131.048 857.398 133.864C862.091 136.595 867.766 137.96 874.422 137.96ZM934.355 145C934.525 138.6 934.653 133.352 934.739 129.256C934.824 125.075 934.867 121.661 934.867 119.016C934.952 116.371 934.995 114.109 934.995 112.232C934.995 110.355 934.995 108.52 934.995 106.728C934.995 104.936 934.995 102.76 934.995 100.2C934.995 97.64 934.995 95.464 934.995 93.672C934.995 91.88 934.995 90.0453 934.995 88.168C934.995 86.2907 934.952 84.0293 934.867 81.384C934.867 78.7387 934.824 75.368 934.739 71.272C934.739 67.0907 934.696 61.8 934.611 55.4H956.883C960.125 67.5173 962.899 77.8427 965.203 86.376C967.507 94.824 969.384 101.821 970.835 107.368C972.371 112.829 973.608 117.181 974.547 120.424C975.485 123.667 976.211 126.141 976.723 127.848C977.235 129.469 977.619 130.579 977.875 131.176C978.216 131.773 978.557 132.243 978.899 132.584C979.411 133.181 980.136 133.608 981.075 133.864C982.013 134.035 983.507 134.12 985.555 134.12C987.261 134.12 988.456 134.077 989.139 133.992C989.907 133.821 990.504 133.565 990.931 133.224C991.272 132.883 991.528 132.413 991.699 131.816C991.955 131.133 992.125 129.811 992.211 127.848C992.296 125.885 992.339 122.813 992.339 118.632C992.339 115.987 992.296 112.403 992.211 107.88C992.211 103.357 992.168 98.28 992.083 92.648C991.997 86.9307 991.869 80.9147 991.699 74.6C991.613 68.2 991.485 61.8 991.315 55.4H996.691C996.52 61.8 996.392 67.0907 996.307 71.272C996.307 75.368 996.264 78.7387 996.179 81.384C996.179 84.0293 996.136 86.2907 996.051 88.168C996.051 90.0453 996.051 91.88 996.051 93.672C996.051 95.464 996.051 97.64 996.051 100.2C996.051 102.76 996.051 104.936 996.051 106.728C996.051 108.52 996.051 110.355 996.051 112.232C996.051 114.109 996.051 116.371 996.051 119.016C996.136 121.661 996.179 125.075 996.179 129.256C996.264 133.352 996.349 138.6 996.435 145H977.107C973.779 132.627 970.92 122.173 968.531 113.64C966.227 105.021 964.307 97.9387 962.771 92.392C961.32 86.76 960.125 82.3227 959.187 79.08C958.248 75.8373 957.48 73.448 956.883 71.912C956.371 70.2907 955.944 69.224 955.603 68.712C955.347 68.1147 955.091 67.6453 954.835 67.304C954.323 66.7067 953.512 66.3653 952.403 66.28C951.379 66.1093 949.629 66.024 947.155 66.024C944.851 66.024 943.272 66.1093 942.419 66.28C941.565 66.3653 940.925 66.664 940.499 67.176C940.072 67.688 939.688 68.3707 939.347 69.224C939.091 69.992 938.92 71.3147 938.835 73.192C938.749 75.0693 938.707 77.928 938.707 81.768C938.707 84.4133 938.707 87.9547 938.707 92.392C938.707 96.8293 938.707 101.864 938.707 107.496C938.792 113.128 938.877 119.144 938.963 125.544C939.133 131.944 939.347 138.429 939.603 145H934.355ZM1020.91 145V122.472C1022.61 122.557 1024.15 122.643 1025.51 122.728C1026.88 122.728 1028.03 122.728 1028.97 122.728C1031.79 122.728 1033.75 122.643 1034.86 122.472C1036.05 122.216 1036.95 121.917 1037.55 121.576C1038.14 121.149 1038.57 120.68 1038.83 120.168C1039.17 119.571 1039.42 118.675 1039.59 117.48C1039.76 116.2 1039.89 114.493 1039.98 112.36C1040.06 110.141 1040.11 107.197 1040.11 103.528C1040.11 99.2613 1040.06 95.7627 1039.98 93.032C1039.98 90.216 1039.93 87.9547 1039.85 86.248C1039.76 84.5413 1039.59 83.2613 1039.34 82.408C1039.17 81.4693 1038.95 80.8293 1038.7 80.488C1038.53 80.0613 1038.23 79.6773 1037.8 79.336C1037.29 78.9947 1036.61 78.7387 1035.75 78.568C1034.9 78.312 1033.66 78.184 1032.04 78.184C1030.93 78.184 1029.44 78.2693 1027.56 78.44C1025.68 78.5253 1023.38 78.7387 1020.65 79.08V59.112L1047.53 54.376C1047.36 62.9093 1047.23 71.272 1047.15 79.464C1047.15 87.5707 1047.15 95.592 1047.15 103.528C1047.15 107.197 1047.15 110.141 1047.15 112.36C1047.23 114.579 1047.36 116.328 1047.53 117.608C1047.7 118.803 1047.96 119.699 1048.3 120.296C1048.64 120.893 1049.07 121.363 1049.58 121.704C1050.09 122.045 1050.9 122.301 1052.01 122.472C1053.12 122.643 1054.91 122.728 1057.39 122.728C1058.41 122.728 1059.6 122.728 1060.97 122.728C1062.42 122.643 1063.96 122.557 1065.58 122.472V145H1020.91Z" fill="white" fill-opacity="0.9"/>
<path d="M332.485 145C332.528 141.928 332.57 139.411 332.613 137.448C332.656 135.485 332.677 133.864 332.677 132.584C332.72 131.261 332.741 130.131 332.741 129.192C332.741 128.211 332.741 127.229 332.741 126.248C332.741 125.224 332.741 124.008 332.741 122.6C332.741 121.192 332.741 119.997 332.741 119.016C332.741 117.992 332.741 117.011 332.741 116.072C332.741 115.091 332.72 113.96 332.677 112.68C332.677 111.357 332.656 109.715 332.613 107.752C332.57 105.789 332.528 103.272 332.485 100.2H348.869C352.581 100.2 355.418 101.224 357.381 103.272C359.386 105.32 360.389 108.051 360.389 111.464C360.389 112.36 360.261 113.427 360.005 114.664C359.792 115.901 359.237 117.139 358.341 118.376C357.488 119.613 356.08 120.659 354.117 121.512C356.378 122.067 358.149 122.92 359.429 124.072C360.709 125.224 361.626 126.568 362.181 128.104C362.778 129.597 363.077 131.197 363.077 132.904C363.077 135.336 362.522 137.469 361.413 139.304C360.346 141.096 358.832 142.504 356.869 143.528C354.949 144.509 352.645 145 349.957 145H332.485ZM343.237 140.712C345.328 140.712 347.077 140.712 348.485 140.712C349.893 140.669 351.045 140.605 351.941 140.52C352.837 140.435 353.584 140.328 354.181 140.2C354.778 140.072 355.312 139.923 355.781 139.752C357.317 139.112 358.533 138.109 359.429 136.744C360.325 135.336 360.773 133.693 360.773 131.816C360.773 130.195 360.432 128.829 359.749 127.72C359.109 126.611 358.298 125.715 357.317 125.032C356.378 124.349 355.482 123.859 354.629 123.56C354.074 123.389 353.477 123.261 352.837 123.176C352.24 123.048 351.514 122.963 350.661 122.92C349.85 122.835 348.826 122.792 347.589 122.792C346.394 122.792 344.944 122.792 343.237 122.792C341.573 122.792 340.25 122.813 339.269 122.856C338.288 122.856 337.52 122.877 336.965 122.92C336.453 122.92 336.069 122.963 335.813 123.048C335.557 123.133 335.344 123.24 335.173 123.368C335.045 123.496 334.896 123.752 334.725 124.136C334.597 124.52 334.512 125.288 334.469 126.44C334.426 127.592 334.405 129.384 334.405 131.816C334.405 134.248 334.426 136.019 334.469 137.128C334.512 138.237 334.597 138.963 334.725 139.304C334.896 139.603 335.045 139.837 335.173 140.008C335.344 140.136 335.557 140.243 335.813 140.328C336.069 140.413 336.453 140.499 336.965 140.584C337.52 140.627 338.288 140.669 339.269 140.712C340.25 140.712 341.573 140.712 343.237 140.712ZM343.109 120.488C345.37 120.488 347.12 120.488 348.357 120.488C349.637 120.445 350.618 120.381 351.301 120.296C352.026 120.211 352.666 120.083 353.221 119.912C354.501 119.571 355.653 118.803 356.677 117.608C357.744 116.371 358.277 114.664 358.277 112.488C358.277 110.355 357.744 108.691 356.677 107.496C355.653 106.259 354.501 105.448 353.221 105.064C352.666 104.893 352.026 104.765 351.301 104.68C350.618 104.595 349.637 104.552 348.357 104.552C347.12 104.509 345.37 104.488 343.109 104.488C341.018 104.488 339.44 104.509 338.373 104.552C337.306 104.552 336.56 104.595 336.133 104.68C335.749 104.765 335.45 104.893 335.237 105.064C335.066 105.192 334.917 105.448 334.789 105.832C334.661 106.173 334.576 106.856 334.533 107.88C334.49 108.861 334.469 110.397 334.469 112.488C334.469 114.579 334.49 116.136 334.533 117.16C334.576 118.141 334.661 118.803 334.789 119.144C334.917 119.485 335.066 119.741 335.237 119.912C335.45 120.083 335.749 120.211 336.133 120.296C336.56 120.381 337.306 120.445 338.373 120.488C339.44 120.488 341.018 120.488 343.109 120.488ZM373.083 144.552V139.816C373.553 139.987 374.193 140.221 375.003 140.52C375.857 140.776 376.838 141.011 377.947 141.224C379.099 141.437 380.273 141.544 381.467 141.544C383.643 141.544 385.457 141.139 386.907 140.328C388.358 139.475 389.553 138.323 390.491 136.872C391.473 135.421 392.262 133.779 392.859 131.944C393.499 130.109 394.054 128.211 394.523 126.248H378.971C378.246 123.389 377.585 120.872 376.987 118.696C376.39 116.477 375.835 114.408 375.323 112.488C374.854 110.568 374.363 108.627 373.851 106.664C373.339 104.659 372.785 102.504 372.187 100.2H374.939C375.579 103.571 376.198 106.664 376.795 109.48C377.435 112.253 377.99 114.6 378.459 116.52C378.929 118.397 379.27 119.613 379.483 120.168C379.739 120.723 380.038 121.171 380.379 121.512C380.763 121.811 381.489 122.024 382.555 122.152C383.622 122.237 385.307 122.28 387.611 122.28C389.915 122.28 391.601 122.237 392.667 122.152C393.777 122.024 394.502 121.811 394.843 121.512C395.227 121.171 395.526 120.723 395.739 120.168C395.995 119.613 396.358 118.397 396.827 116.52C397.339 114.6 397.915 112.253 398.555 109.48C399.195 106.664 399.835 103.571 400.475 100.2H403.227C402.715 102.077 402.161 104.104 401.563 106.28C401.009 108.413 400.454 110.568 399.899 112.744C399.345 114.877 398.811 116.904 398.299 118.824C397.787 120.701 397.361 122.344 397.019 123.752C396.678 125.117 396.465 126.077 396.379 126.632C395.569 130.088 394.779 132.883 394.011 135.016C393.243 137.107 392.454 138.749 391.643 139.944C390.875 141.139 390.086 142.035 389.275 142.632C388.507 143.187 387.761 143.677 387.035 144.104C386.139 144.573 385.115 144.915 383.963 145.128C382.811 145.384 381.446 145.512 379.867 145.512C378.374 145.512 377.03 145.384 375.835 145.128C374.641 144.915 373.723 144.723 373.083 144.552Z" fill="#EDEDED" fill-opacity="0.3"/>
<ellipse cx="10.5" cy="10" rx="10.5" ry="10" transform="matrix(1 0 0 -1 194 113)" fill="white" fill-opacity="0.9"/>
<ellipse cx="10.5" cy="10" rx="10.5" ry="10" transform="matrix(1 0 0 -1 284 113)" fill="white" fill-opacity="0.9"/>
</svg>
